0, 0, Header, 1, 1, 192
1, 0, Start_track
1, 0, Title_t, "Melody"
1, 0, Tempo, 331491
1, 0, Key_signature, 2, "major"
1, 0, Time_signature, 4, 2, 24, 8
1, 4656, Note_on_c, 0, 53, 94
1, 4775, Note_off_c, 0, 53, 94
1, 4783, Note_on_c, 0, 57, 95
1, 5340, Note_off_c, 0, 57, 95
1, 5849, Note_on_c, 0, 59, 96
1, 6110, Note_off_c, 0, 59, 96
1, 6124, Note_on_c, 0, 61, 115
1, 6258, Note_off_c, 0, 61, 115
1, 6292, Note_on_c, 0, 59, 92
1, 6418, Note_off_c, 0, 59, 92
1, 6436, Note_on_c, 0, 57, 109
1, 6586, Note_off_c, 0, 57, 109
1, 6609, Note_on_c, 0, 54, 102
1, 6795, Note_off_c, 0, 54, 102
1, 6797, Note_on_c, 0, 53, 98
1, 6858, Note_off_c, 0, 53, 98
1, 6867, Note_on_c, 0, 54, 97
1, 7054, Note_off_c, 0, 54, 97
1, 7763, Note_on_c, 0, 57, 109
1, 7819, Note_off_c, 0, 57, 109
1, 7834, Note_on_c, 0, 58, 112
1, 7934, Note_off_c, 0, 58, 112
1, 7945, Note_on_c, 0, 60, 111
1, 8087, Note_off_c, 0, 60, 111
1, 8136, Note_on_c, 0, 67, 118
1, 8206, Note_off_c, 0, 67, 118
1, 8213, Note_on_c, 0, 65, 114
1, 8319, Note_off_c, 0, 65, 114
1, 8329, Note_on_c, 0, 62, 106
1, 8397, Note_off_c, 0, 62, 106
1, 8397, Note_on_c, 0, 64, 111
1, 8653, Note_off_c, 0, 64, 111
1, 8682, Note_on_c, 0, 62, 117
1, 8759, Note_off_c, 0, 62, 117
1, 8771, Note_on_c, 0, 61, 111
1, 8877, Note_off_c, 0, 61, 111
1, 8940, Note_on_c, 0, 59, 93
1, 9055, Note_off_c, 0, 59, 93
1, 9074, Note_on_c, 0, 61, 115
1, 9187, Note_off_c, 0, 61, 115
1, 9256, Note_on_c, 0, 59, 95
1, 9310, Note_off_c, 0, 59, 95
1, 9322, Note_on_c, 0, 57, 105
1, 9462, Note_off_c, 0, 57, 105
1, 9509, Note_on_c, 0, 62, 112
1, 9635, Note_off_c, 0, 62, 112
1, 9655, Note_on_c, 0, 59, 83
1, 9858, Note_off_c, 0, 59, 83
1, 10397, Note_on_c, 0, 57, 111
1, 10460, Note_off_c, 0, 57, 111
1, 10466, Note_on_c, 0, 59, 105
1, 10549, Note_off_c, 0, 59, 105
1, 10584, Note_on_c, 0, 62, 113
1, 10643, Note_off_c, 0, 62, 113
1, 10657, Note_on_c, 0, 65, 116
1, 10759, Note_off_c, 0, 65, 116
1, 10770, Note_on_c, 0, 66, 123
1, 10834, Note_off_c, 0, 66, 123
1, 10842, Note_on_c, 0, 65, 112
1, 10933, Note_off_c, 0, 65, 112
1, 10954, Note_on_c, 0, 66, 114
1, 11122, Note_off_c, 0, 66, 114
1, 11135, Note_on_c, 0, 62, 110
1, 11201, Note_off_c, 0, 62, 110
1, 11213, Note_on_c, 0, 59, 95
1, 11330, Note_off_c, 0, 59, 95
1, 11335, Note_on_c, 0, 53, 107
1, 11398, Note_off_c, 0, 53, 107
1, 11412, Note_on_c, 0, 65, 116
1, 11558, Note_off_c, 0, 65, 116
1, 11573, Note_on_c, 0, 62, 118
1, 11702, Note_off_c, 0, 62, 118
1, 11715, Note_on_c, 0, 64, 110
1, 11984, Note_off_c, 0, 64, 110
1, 12458, Note_on_c, 0, 52, 118
1, 12503, Note_off_c, 0, 52, 118
1, 12508, Note_on_c, 0, 53, 116
1, 12554, Note_off_c, 0, 53, 116
1, 12559, Note_on_c, 0, 54, 106
1, 12648, Note_off_c, 0, 54, 106
1, 12660, Note_on_c, 0, 57, 106
1, 12734, Note_off_c, 0, 57, 106
1, 12740, Note_on_c, 0, 59, 105
1, 12850, Note_off_c, 0, 59, 105
1, 12851, Note_on_c, 0, 61, 108
1, 12920, Note_off_c, 0, 61, 108
1, 12935, Note_on_c, 0, 64, 119
1, 13104, Note_off_c, 0, 64, 119
1, 13115, Note_on_c, 0, 63, 96
1, 13203, Note_off_c, 0, 63, 96
1, 13218, Note_on_c, 0, 62, 111
1, 13453, Note_off_c, 0, 62, 111
1, 13463, Note_on_c, 0, 61, 115
1, 13571, Note_off_c, 0, 61, 115
1, 13605, Note_on_c, 0, 64, 119
1, 13726, Note_off_c, 0, 64, 119
1, 13750, Note_on_c, 0, 66, 104
1, 13856, Note_off_c, 0, 66, 104
1, 13875, Note_on_c, 0, 57, 99
1, 13990, Note_off_c, 0, 57, 99
1, 14020, Note_on_c, 0, 57, 91
1, 14241, Note_off_c, 0, 57, 91
1, 14821, Note_on_c, 0, 69, 102
1, 14962, Note_off_c, 0, 69, 102
1, 14972, Note_on_c, 0, 69, 105
1, 15087, Note_off_c, 0, 69, 105
1, 15134, Note_on_c, 0, 69, 105
1, 15499, Note_off_c, 0, 69, 105
1, 15515, Note_on_c, 0, 62, 108
1, 15597, Note_off_c, 0, 62, 108
1, 15697, Note_on_c, 0, 62, 110
1, 15873, Note_off_c, 0, 62, 110
1, 15894, Note_on_c, 0, 61, 111
1, 15952, Note_off_c, 0, 61, 111
1, 15977, Note_on_c, 0, 62, 102
1, 16185, Note_off_c, 0, 62, 102
1, 16659, Note_on_c, 0, 57, 90
1, 16715, Note_off_c, 0, 57, 90
1, 16731, Note_on_c, 0, 58, 102
1, 16860, Note_off_c, 0, 58, 102
1, 16862, Note_on_c, 0, 60, 99
1, 16905, Note_off_c, 0, 60, 99
1, 16908, Note_on_c, 0, 62, 115
1, 17022, Note_off_c, 0, 62, 115
1, 17023, Note_on_c, 0, 67, 111
1, 17102, Note_off_c, 0, 67, 111
1, 17118, Note_on_c, 0, 65, 106
1, 17175, Note_off_c, 0, 65, 106
1, 17175, Note_on_c, 0, 67, 96
1, 17219, Note_off_c, 0, 67, 96
1, 17221, Note_on_c, 0, 65, 105
1, 17257, Note_off_c, 0, 65, 105
1, 17257, Note_on_c, 0, 62, 109
1, 17298, Note_off_c, 0, 62, 109
1, 17313, Note_on_c, 0, 58, 99
1, 17434, Note_off_c, 0, 58, 99
1, 17442, Note_on_c, 0, 55, 95
1, 17472, Note_off_c, 0, 55, 95
1, 17486, Note_on_c, 0, 57, 95
1, 17615, Note_off_c, 0, 57, 95
1, 17636, Note_on_c, 0, 56, 107
1, 17783, Note_off_c, 0, 56, 107
1, 17814, Note_on_c, 0, 65, 108
1, 17897, Note_off_c, 0, 65, 108
1, 17992, Note_on_c, 0, 55, 100
1, 18103, Note_off_c, 0, 55, 100
1, 18126, Note_on_c, 0, 64, 111
1, 18236, Note_off_c, 0, 64, 111
1, 18251, Note_on_c, 0, 62, 108
1, 18432, Note_off_c, 0, 62, 108
1, 18444, Note_on_c, 0, 59, 81
1, 18598, Note_off_c, 0, 59, 81
1, 18614, Note_on_c, 0, 59, 79
1, 18805, Note_off_c, 0, 59, 79
1, 19519, Note_on_c, 0, 57, 104
1, 19699, Note_off_c, 0, 57, 104
1, 19719, Note_on_c, 0, 57, 104
1, 19873, Note_off_c, 0, 57, 104
1, 19894, Note_on_c, 0, 57, 87
1, 20336, Note_off_c, 0, 57, 87
1, 20925, Note_on_c, 0, 55, 101
1, 21057, Note_off_c, 0, 55, 101
1, 21061, Note_on_c, 0, 56, 110
1, 21122, Note_off_c, 0, 56, 110
1, 21127, Note_on_c, 0, 57, 107
1, 21275, Note_off_c, 0, 57, 107
1, 21317, Note_on_c, 0, 55, 100
1, 21406, Note_off_c, 0, 55, 100
1, 21412, Note_on_c, 0, 57, 106
1, 21508, Note_off_c, 0, 57, 106
1, 21517, Note_on_c, 0, 52, 103
1, 21598, Note_off_c, 0, 52, 103
1, 21608, Note_on_c, 0, 53, 95
1, 21675, Note_off_c, 0, 53, 95
1, 21682, Note_on_c, 0, 54, 96
1, 21803, Note_off_c, 0, 54, 96
1, 21813, Note_on_c, 0, 62, 101
1, 22062, Note_off_c, 0, 62, 101
1, 22074, Note_on_c, 0, 57, 92
1, 22121, Note_off_c, 0, 57, 92
1, 22126, Note_on_c, 0, 59, 94
1, 22178, Note_off_c, 0, 59, 94
1, 22183, Note_on_c, 0, 57, 92
1, 22230, Note_off_c, 0, 57, 92
1, 22235, Note_on_c, 0, 64, 110
1, 22380, Note_off_c, 0, 64, 110
1, 22390, Note_on_c, 0, 62, 99
1, 22648, Note_off_c, 0, 62, 99
1, 22658, Note_on_c, 0, 57, 94
1, 22763, Note_off_c, 0, 57, 94
1, 22856, Note_on_c, 0, 62, 103
1, 23019, Note_off_c, 0, 62, 103
1, 23504, Note_on_c, 0, 59, 83
1, 23575, Note_off_c, 0, 59, 83
1, 23583, Note_on_c, 0, 62, 118
1, 23693, Note_off_c, 0, 62, 118
1, 23700, Note_on_c, 0, 66, 106
1, 23863, Note_off_c, 0, 66, 106
1, 23891, Note_on_c, 0, 62, 104
1, 24136, Note_off_c, 0, 62, 104
1, 24148, Note_on_c, 0, 59, 99
1, 24248, Note_off_c, 0, 59, 99
1, 24263, Note_on_c, 0, 57, 96
1, 24327, Note_off_c, 0, 57, 96
1, 24373, Note_on_c, 0, 71, 111
1, 24462, Note_off_c, 0, 71, 111
1, 24467, Note_on_c, 0, 69, 101
1, 24528, Note_off_c, 0, 69, 101
1, 24543, Note_on_c, 0, 66, 106
1, 24630, Note_off_c, 0, 66, 106
1, 24635, Note_on_c, 0, 62, 102
1, 24709, Note_off_c, 0, 62, 102
1, 24732, Note_on_c, 0, 62, 101
1, 24887, Note_off_c, 0, 62, 101
1, 24929, Note_on_c, 0, 59, 77
1, 25023, Note_off_c, 0, 59, 77
1, 25091, Note_on_c, 0, 64, 109
1, 25375, Note_off_c, 0, 64, 109
1, 25388, Note_on_c, 0, 62, 107
1, 25442, Note_off_c, 0, 62, 107
1, 25447, Note_on_c, 0, 64, 104
1, 25484, Note_off_c, 0, 64, 104
1, 25492, Note_on_c, 0, 62, 95
1, 25531, Note_off_c, 0, 62, 95
1, 25558, Note_on_c, 0, 56, 106
1, 25653, Note_off_c, 0, 56, 106
1, 25713, Note_on_c, 0, 64, 110
1, 25869, Note_off_c, 0, 64, 110
1, 25882, Note_on_c, 0, 62, 106
1, 25929, Note_off_c, 0, 62, 106
1, 25938, Note_on_c, 0, 64, 98
1, 25955, Note_off_c, 0, 64, 98
1, 25965, Note_on_c, 0, 62, 98
1, 26001, Note_off_c, 0, 62, 98
1, 26009, Note_on_c, 0, 55, 88
1, 26189, Note_off_c, 0, 55, 88
1, 26540, Note_on_c, 0, 56, 91
1, 26578, Note_off_c, 0, 56, 91
1, 26583, Note_on_c, 0, 59, 88
1, 26710, Note_off_c, 0, 59, 88
1, 26719, Note_on_c, 0, 62, 115
1, 26795, Note_off_c, 0, 62, 115
1, 26918, Note_on_c, 0, 60, 109
1, 26994, Note_off_c, 0, 60, 109
1, 26996, Note_on_c, 0, 61, 111
1, 27084, Note_off_c, 0, 61, 111
1, 27094, Note_on_c, 0, 64, 108
1, 27354, Note_off_c, 0, 64, 108
1, 27360, Note_on_c, 0, 62, 110
1, 27496, Note_off_c, 0, 62, 110
1, 27505, Note_on_c, 0, 59, 93
1, 27525, Note_off_c, 0, 59, 93
1, 27559, Note_on_c, 0, 52, 100
1, 27643, Note_off_c, 0, 52, 100
1, 27659, Note_on_c, 0, 53, 96
1, 27714, Note_off_c, 0, 53, 96
1, 27734, Note_on_c, 0, 54, 91
1, 27852, Note_off_c, 0, 54, 91
1, 27859, Note_on_c, 0, 57, 98
1, 27904, Note_off_c, 0, 57, 98
1, 27915, Note_on_c, 0, 62, 97
1, 28108, Note_off_c, 0, 62, 97
1, 28985, Note_on_c, 0, 59, 94
1, 29208, Note_off_c, 0, 59, 94
1, 29216, Note_on_c, 0, 60, 109
1, 29329, Note_off_c, 0, 60, 109
1, 29339, Note_on_c, 0, 60, 106
1, 29480, Note_off_c, 0, 60, 106
1, 29581, Note_on_c, 0, 60, 107
1, 29831, Note_off_c, 0, 60, 107
1, 29961, Note_on_c, 0, 58, 102
1, 29994, Note_off_c, 0, 58, 102
1, 30005, Note_on_c, 0, 60, 109
1, 30100, Note_off_c, 0, 60, 109
1, 30112, Note_on_c, 0, 61, 110
1, 30181, Note_off_c, 0, 61, 110
1, 30196, Note_on_c, 0, 62, 112
1, 30307, Note_off_c, 0, 62, 112
1, 30321, Note_on_c, 0, 58, 92
1, 30427, Note_off_c, 0, 58, 92
1, 30501, Note_on_c, 0, 55, 90
1, 30641, Note_off_c, 0, 55, 90
1, 30668, Note_on_c, 0, 56, 106
1, 30832, Note_off_c, 0, 56, 106
1, 30855, Note_on_c, 0, 57, 88
1, 31109, Note_off_c, 0, 57, 88
1, 31633, Note_on_c, 0, 56, 113
1, 31763, Note_off_c, 0, 56, 113
1, 31768, Note_on_c, 0, 58, 105
1, 31869, Note_off_c, 0, 58, 105
1, 31902, Note_on_c, 0, 60, 108
1, 32025, Note_off_c, 0, 60, 108
1, 32106, Note_on_c, 0, 67, 112
1, 32222, Note_off_c, 0, 67, 112
1, 32232, Note_on_c, 0, 66, 104
1, 32281, Note_off_c, 0, 66, 104
1, 32295, Note_on_c, 0, 65, 109
1, 32381, Note_off_c, 0, 65, 109
1, 32393, Note_on_c, 0, 62, 115
1, 32445, Note_off_c, 0, 62, 115
1, 32456, Note_on_c, 0, 60, 104
1, 32588, Note_off_c, 0, 60, 104
1, 32624, Note_on_c, 0, 60, 103
1, 32756, Note_off_c, 0, 60, 103
1, 32771, Note_on_c, 0, 58, 103
1, 32830, Note_off_c, 0, 58, 103
1, 32843, Note_on_c, 0, 55, 96
1, 33013, Note_off_c, 0, 55, 96
1, 33024, Note_on_c, 0, 57, 105
1, 33147, Note_off_c, 0, 57, 105
1, 33163, Note_on_c, 0, 65, 100
1, 33415, Note_off_c, 0, 65, 100
1, 33428, Note_on_c, 0, 64, 110
1, 33549, Note_off_c, 0, 64, 110
1, 33609, Note_on_c, 0, 67, 97
1, 33750, Note_off_c, 0, 67, 97
1, 33755, Note_on_c, 0, 66, 97
1, 33851, Note_off_c, 0, 66, 97
1, 33906, Note_on_c, 0, 62, 106
1, 33971, Note_off_c, 0, 62, 106
1, 33994, Note_on_c, 0, 57, 87
1, 34113, Note_off_c, 0, 57, 87
1, 34680, Note_on_c, 0, 64, 117
1, 34832, Note_off_c, 0, 64, 117
1, 34844, Note_on_c, 0, 65, 117
1, 34915, Note_off_c, 0, 65, 117
1, 34925, Note_on_c, 0, 66, 117
1, 35015, Note_off_c, 0, 66, 117
1, 35028, Note_on_c, 0, 65, 113
1, 35092, Note_off_c, 0, 65, 113
1, 35099, Note_on_c, 0, 66, 113
1, 35212, Note_off_c, 0, 66, 113
1, 35221, Note_on_c, 0, 65, 105
1, 35270, Note_off_c, 0, 65, 105
1, 35282, Note_on_c, 0, 66, 111
1, 35400, Note_off_c, 0, 66, 111
1, 35408, Note_on_c, 0, 62, 115
1, 35483, Note_off_c, 0, 62, 115
1, 35680, Note_on_c, 0, 65, 114
1, 35819, Note_off_c, 0, 65, 114
1, 35840, Note_on_c, 0, 62, 114
1, 35952, Note_off_c, 0, 62, 114
1, 35987, Note_on_c, 0, 64, 105
1, 36213, Note_off_c, 0, 64, 105
1, 36715, Note_on_c, 0, 66, 97
1, 36921, Note_off_c, 0, 66, 97
1, 36930, Note_on_c, 0, 69, 101
1, 36981, Note_off_c, 0, 69, 101
1, 36991, Note_on_c, 0, 71, 112
1, 37107, Note_off_c, 0, 71, 112
1, 37122, Note_on_c, 0, 69, 99
1, 37166, Note_off_c, 0, 69, 99
1, 37166, Note_on_c, 0, 71, 105
1, 37277, Note_off_c, 0, 71, 105
1, 37291, Note_on_c, 0, 69, 98
1, 37421, Note_off_c, 0, 69, 98
1, 37468, Note_on_c, 0, 65, 100
1, 37658, Note_off_c, 0, 65, 100
1, 37668, Note_on_c, 0, 64, 110
1, 37838, Note_off_c, 0, 64, 110
1, 37867, Note_on_c, 0, 62, 114
1, 37980, Note_off_c, 0, 62, 114
1, 38057, Note_on_c, 0, 69, 107
1, 38114, Note_off_c, 0, 69, 107
1, 38165, Note_on_c, 0, 66, 99
1, 38286, Note_off_c, 0, 66, 99
1, 38343, Note_on_c, 0, 64, 109
1, 38440, Note_off_c, 0, 64, 109
1, 38467, Note_on_c, 0, 57, 95
1, 38593, Note_off_c, 0, 57, 95
1, 38611, Note_on_c, 0, 57, 94
1, 38779, Note_off_c, 0, 57, 94
1, 39170, Note_on_c, 0, 57, 107
1, 39219, Note_off_c, 0, 57, 107
1, 39238, Note_on_c, 0, 62, 111
1, 39369, Note_off_c, 0, 62, 111
1, 39379, Note_on_c, 0, 62, 101
1, 39617, Note_off_c, 0, 62, 101
1, 39632, Note_on_c, 0, 59, 93
1, 39760, Note_off_c, 0, 59, 93
1, 39792, Note_on_c, 0, 62, 98
1, 40013, Note_off_c, 0, 62, 98
1, 41246, Note_on_c, 0, 69, 100
1, 41393, Note_off_c, 0, 69, 100
1, 41466, Note_on_c, 0, 69, 100
1, 41605, Note_off_c, 0, 69, 100
1, 41633, Note_on_c, 0, 69, 98
1, 41757, Note_off_c, 0, 69, 98
1, 41790, Note_on_c, 0, 69, 94
1, 41908, Note_off_c, 0, 69, 94
1, 41956, Note_on_c, 0, 69, 97
1, 42075, Note_off_c, 0, 69, 97
1, 42114, Note_on_c, 0, 69, 94
1, 42235, Note_off_c, 0, 69, 94
1, 42271, Note_on_c, 0, 69, 91
1, 42386, Note_off_c, 0, 69, 91
1, 42402, Note_on_c, 0, 69, 101
1, 42486, Note_off_c, 0, 69, 101
1, 42499, Note_on_c, 0, 67, 93
1, 42559, Note_off_c, 0, 67, 93
1, 42566, Note_on_c, 0, 62, 102
1, 42707, Note_off_c, 0, 62, 102
1, 42746, Note_on_c, 0, 67, 102
1, 42838, Note_off_c, 0, 67, 102
1, 42849, Note_on_c, 0, 66, 94
1, 42939, Note_off_c, 0, 66, 94
1, 42953, Note_on_c, 0, 62, 95
1, 43047, Note_off_c, 0, 62, 95
1, 43053, Note_on_c, 0, 59, 75
1, 43126, Note_off_c, 0, 59, 75
1, 43199, Note_on_c, 0, 62, 97
1, 43532, Note_off_c, 0, 62, 97
1, 43549, Note_on_c, 0, 59, 83
1, 43652, Note_off_c, 0, 59, 83
1, 44326, Note_on_c, 0, 68, 90
1, 44684, Note_off_c, 0, 68, 90
1, 44695, Note_on_c, 0, 69, 95
1, 44813, Note_off_c, 0, 69, 95
1, 44894, Note_on_c, 0, 57, 90
1, 44998, Note_off_c, 0, 57, 90
1, 45011, Note_on_c, 0, 62, 105
1, 45265, Note_off_c, 0, 62, 105
1, 45270, Note_on_c, 0, 61, 110
1, 45361, Note_off_c, 0, 61, 110
1, 45430, Note_on_c, 0, 59, 94
1, 45479, Note_off_c, 0, 59, 94
1, 45484, Note_on_c, 0, 64, 111
1, 45589, Note_off_c, 0, 64, 111
1, 45597, Note_on_c, 0, 62, 113
1, 45760, Note_off_c, 0, 62, 113
1, 45804, Note_on_c, 0, 66, 93
1, 45968, Note_off_c, 0, 66, 93
1, 45984, Note_on_c, 0, 69, 97
1, 46033, Note_off_c, 0, 69, 97
1, 46175, Note_on_c, 0, 67, 105
1, 46215, Note_off_c, 0, 67, 105
1, 46238, Note_on_c, 0, 61, 88
1, 46368, Note_off_c, 0, 61, 88
1, 46403, Note_on_c, 0, 59, 81
1, 46533, Note_off_c, 0, 59, 81
1, 46548, Note_on_c, 0, 59, 87
1, 46679, Note_off_c, 0, 59, 87
1, 46694, Note_on_c, 0, 62, 97
1, 46822, Note_off_c, 0, 62, 97
1, 46829, Note_on_c, 0, 65, 105
1, 46879, Note_off_c, 0, 65, 105
1, 46890, Note_on_c, 0, 66, 95
1, 46942, Note_off_c, 0, 66, 95
1, 46957, Note_on_c, 0, 57, 103
1, 47164, Note_off_c, 0, 57, 103
1, 47176, Note_on_c, 0, 56, 100
1, 47324, Note_off_c, 0, 56, 100
1, 47355, Note_on_c, 0, 66, 90
1, 47453, Note_off_c, 0, 66, 90
1, 47747, Note_on_c, 0, 56, 103
1, 47882, Note_off_c, 0, 56, 103
1, 47896, Note_on_c, 0, 55, 97
1, 48037, Note_off_c, 0, 55, 97
1, 48052, Note_on_c, 0, 65, 106
1, 48277, Note_off_c, 0, 65, 106
1, 48285, Note_on_c, 0, 64, 105
1, 48429, Note_off_c, 0, 64, 105
1, 48435, Note_on_c, 0, 62, 94
1, 48479, Note_off_c, 0, 62, 94
1, 48487, Note_on_c, 0, 64, 107
1, 48604, Note_off_c, 0, 64, 107
1, 48604, Note_on_c, 0, 62, 103
1, 48653, Note_off_c, 0, 62, 103
1, 48661, Note_on_c, 0, 62, 87
1, 48844, Note_off_c, 0, 62, 87
1, 48881, Note_on_c, 0, 62, 94
1, 49084, Note_off_c, 0, 62, 94
1, 49572, Note_on_c, 0, 59, 91
1, 49701, Note_off_c, 0, 59, 91
1, 49737, Note_on_c, 0, 61, 117
1, 49799, Note_off_c, 0, 61, 117
1, 49899, Note_on_c, 0, 64, 121
1, 50168, Note_off_c, 0, 64, 121
1, 50185, Note_on_c, 0, 64, 107
1, 50244, Note_off_c, 0, 64, 107
1, 50254, Note_on_c, 0, 62, 107
1, 50301, Note_off_c, 0, 62, 107
1, 50308, Note_on_c, 0, 59, 83
1, 50350, Note_off_c, 0, 59, 83
1, 50387, Note_on_c, 0, 64, 113
1, 50534, Note_off_c, 0, 64, 113
1, 50549, Note_on_c, 0, 64, 102
1, 50618, Note_off_c, 0, 64, 102
1, 50636, Note_on_c, 0, 62, 103
1, 50678, Note_off_c, 0, 62, 103
1, 50695, Note_on_c, 0, 59, 94
1, 50739, Note_off_c, 0, 59, 94
1, 50760, Note_on_c, 0, 64, 109
1, 50910, Note_off_c, 0, 64, 109
1, 50927, Note_on_c, 0, 64, 99
1, 50997, Note_off_c, 0, 64, 99
1, 51004, Note_on_c, 0, 62, 104
1, 51061, Note_off_c, 0, 62, 104
1, 51080, Note_on_c, 0, 57, 93
1, 51204, Note_off_c, 0, 57, 93
1, 51224, Note_on_c, 0, 55, 103
1, 51334, Note_off_c, 0, 55, 103
1, 51359, Note_on_c, 0, 54, 90
1, 51464, Note_off_c, 0, 54, 90
1, 51479, Note_on_c, 0, 52, 88
1, 51605, Note_off_c, 0, 52, 88
1, 51652, Note_on_c, 0, 54, 89
1, 51756, Note_off_c, 0, 54, 89
1, 51791, Note_on_c, 0, 50, 95
1, 51902, Note_off_c, 0, 50, 95
1, 52396, Note_on_c, 0, 52, 111
1, 52459, Note_off_c, 0, 52, 111
1, 52466, Note_on_c, 0, 54, 101
1, 52581, Note_off_c, 0, 54, 101
1, 52591, Note_on_c, 0, 57, 106
1, 52636, Note_off_c, 0, 57, 106
1, 52664, Note_on_c, 0, 64, 120
1, 52751, Note_off_c, 0, 64, 120
1, 52760, Note_on_c, 0, 62, 112
1, 52863, Note_off_c, 0, 62, 112
1, 53033, Note_on_c, 0, 58, 97
1, 53172, Note_off_c, 0, 58, 97
1, 53353, Note_on_c, 0, 60, 109
1, 53409, Note_off_c, 0, 60, 109
1, 53419, Note_on_c, 0, 62, 116
1, 53527, Note_off_c, 0, 62, 116
1, 53536, Note_on_c, 0, 67, 107
1, 53601, Note_off_c, 0, 67, 107
1, 53609, Note_on_c, 0, 65, 108
1, 53727, Note_off_c, 0, 65, 108
1, 53738, Note_on_c, 0, 62, 99
1, 53784, Note_off_c, 0, 62, 99
1, 53787, Note_on_c, 0, 64, 105
1, 54013, Note_off_c, 0, 64, 105
1, 54529, Note_on_c, 0, 57, 92
1, 54570, Note_off_c, 0, 57, 92
1, 54598, Note_on_c, 0, 59, 84
1, 54654, Note_off_c, 0, 59, 84
1, 54656, Note_on_c, 0, 61, 108
1, 54734, Note_off_c, 0, 61, 108
1, 54928, Note_on_c, 0, 61, 93
1, 55259, Note_off_c, 0, 61, 93
1, 55304, Note_on_c, 0, 61, 101
1, 55435, Note_off_c, 0, 61, 101
1, 55455, Note_on_c, 0, 57, 101
1, 55501, Note_off_c, 0, 57, 101
1, 55519, Note_on_c, 0, 64, 114
1, 55641, Note_off_c, 0, 64, 114
1, 55651, Note_on_c, 0, 61, 101
1, 55702, Note_off_c, 0, 61, 101
1, 55714, Note_on_c, 0, 62, 109
1, 55847, Note_off_c, 0, 62, 109
1, 55857, Note_on_c, 0, 57, 96
1, 55924, Note_off_c, 0, 57, 96
1, 56018, Note_on_c, 0, 53, 105
1, 56181, Note_off_c, 0, 53, 105
1, 56931, Note_on_c, 0, 52, 113
1, 57116, Note_off_c, 0, 52, 113
1, 57118, Note_on_c, 0, 51, 109
1, 57150, Note_off_c, 0, 51, 109
1, 57155, Note_on_c, 0, 50, 107
1, 57184, Note_off_c, 0, 50, 107
1, 57187, Note_on_c, 0, 49, 113
1, 57360, Note_off_c, 0, 49, 113
1, 57378, Note_on_c, 0, 52, 109
1, 57489, Note_off_c, 0, 52, 109
1, 57507, Note_on_c, 0, 55, 103
1, 57628, Note_off_c, 0, 55, 103
1, 57645, Note_on_c, 0, 62, 86
1, 57870, Note_off_c, 0, 62, 86
1, 57879, Note_on_c, 0, 57, 94
1, 57952, Note_off_c, 0, 57, 94
1, 57961, Note_on_c, 0, 62, 103
1, 58151, Note_off_c, 0, 62, 103
1, 58161, Note_on_c, 0, 59, 84
1, 58250, Note_off_c, 0, 59, 84
1, 58260, Note_on_c, 0, 57, 93
1, 58364, Note_off_c, 0, 57, 93
1, 58861, Note_on_c, 0, 59, 99
1, 59072, Note_off_c, 0, 59, 99
1, 59110, Note_on_c, 0, 62, 118
1, 59212, Note_off_c, 0, 62, 118
1, 59224, Note_on_c, 0, 65, 114
1, 59294, Note_off_c, 0, 65, 114
1, 59307, Note_on_c, 0, 66, 116
1, 59412, Note_off_c, 0, 66, 116
1, 59423, Note_on_c, 0, 61, 106
1, 59468, Note_off_c, 0, 61, 106
1, 59483, Note_on_c, 0, 57, 107
1, 59670, Note_off_c, 0, 57, 107
1, 59676, Note_on_c, 0, 56, 108
1, 59843, Note_off_c, 0, 56, 108
1, 59900, Note_on_c, 0, 65, 110
1, 60043, Note_off_c, 0, 65, 110
1, 60053, Note_on_c, 0, 62, 112
1, 60172, Note_off_c, 0, 62, 112
1, 60195, Note_on_c, 0, 64, 111
1, 60407, Note_off_c, 0, 64, 111
1, 61109, Note_on_c, 0, 69, 110
1, 61230, Note_off_c, 0, 69, 110
1, 61298, Note_on_c, 0, 71, 109
1, 61360, Note_off_c, 0, 71, 109
1, 61366, Note_on_c, 0, 72, 102
1, 61427, Note_off_c, 0, 72, 102
1, 61432, Note_on_c, 0, 71, 100
1, 61471, Note_off_c, 0, 71, 100
1, 61475, Note_on_c, 0, 69, 97
1, 61527, Note_off_c, 0, 69, 97
1, 61537, Note_on_c, 0, 71, 99
1, 61779, Note_off_c, 0, 71, 99
1, 61797, Note_on_c, 0, 70, 101
1, 61827, Note_off_c, 0, 70, 101
1, 61830, Note_on_c, 0, 67, 112
1, 61866, Note_off_c, 0, 67, 112
1, 61875, Note_on_c, 0, 65, 115
1, 61916, Note_off_c, 0, 65, 115
1, 61927, Note_on_c, 0, 64, 112
1, 62000, Note_off_c, 0, 64, 112
1, 62008, Note_on_c, 0, 62, 99
1, 62051, Note_off_c, 0, 62, 99
1, 62069, Note_on_c, 0, 64, 108
1, 62313, Note_off_c, 0, 64, 108
1, 62434, Note_on_c, 0, 57, 103
1, 62492, Note_off_c, 0, 57, 103
1, 62502, Note_on_c, 0, 59, 105
1, 62599, Note_off_c, 0, 59, 105
1, 62633, Note_on_c, 0, 62, 110
1, 62687, Note_off_c, 0, 62, 110
1, 62694, Note_on_c, 0, 65, 108
1, 62901, Note_off_c, 0, 65, 108
1, 62906, Note_on_c, 0, 66, 93
1, 63061, Note_off_c, 0, 66, 93
1, 63270, Note_on_c, 0, 57, 100
1, 63398, Note_off_c, 0, 57, 100
1, 63424, Note_on_c, 0, 67, 110
1, 63559, Note_off_c, 0, 67, 110
1, 63576, Note_on_c, 0, 66, 102
1, 63719, Note_off_c, 0, 66, 102
1, 63752, Note_on_c, 0, 62, 109
1, 63857, Note_off_c, 0, 62, 109
1, 63995, Note_on_c, 0, 62, 105
1, 64195, Note_off_c, 0, 62, 105
1, 64205, Note_on_c, 0, 57, 90
1, 64397, Note_off_c, 0, 57, 90
1, 64948, Note_on_c, 0, 60, 100
1, 65283, Note_off_c, 0, 60, 100
1, 65365, Note_on_c, 0, 67, 112
1, 65463, Note_off_c, 0, 67, 112
1, 65474, Note_on_c, 0, 65, 104
1, 65720, Note_off_c, 0, 65, 104
1, 65731, Note_on_c, 0, 62, 112
1, 65862, Note_off_c, 0, 62, 112
1, 65879, Note_on_c, 0, 60, 100
1, 65911, Note_off_c, 0, 60, 100
1, 65931, Note_on_c, 0, 64, 114
1, 66030, Note_off_c, 0, 64, 114
1, 66038, Note_on_c, 0, 62, 108
1, 66104, Note_off_c, 0, 62, 108
1, 66116, Note_on_c, 0, 60, 105
1, 66220, Note_off_c, 0, 60, 105
1, 66235, Note_on_c, 0, 57, 103
1, 66444, Note_off_c, 0, 57, 103
1, 67063, Note_on_c, 0, 57, 94
1, 67781, Note_off_c, 0, 57, 94
1, 67789, Note_on_c, 0, 56, 100
1, 67818, Note_off_c, 0, 56, 100
1, 67824, Note_on_c, 0, 55, 103
1, 67854, Note_off_c, 0, 55, 103
1, 67859, Note_on_c, 0, 54, 102
1, 67944, Note_off_c, 0, 54, 102
1, 67948, Note_on_c, 0, 57, 104
1, 68045, Note_off_c, 0, 57, 104
1, 68390, Note_on_c, 0, 52, 100
1, 68577, Note_off_c, 0, 52, 100
1, 68587, Note_on_c, 0, 53, 95
1, 68836, Note_off_c, 0, 53, 95
1, 68950, Note_on_c, 0, 57, 104
1, 69106, Note_off_c, 0, 57, 104
1, 69166, Note_on_c, 0, 67, 107
1, 69273, Note_off_c, 0, 67, 107
1, 69289, Note_on_c, 0, 65, 108
1, 69496, Note_off_c, 0, 65, 108
1, 70102, Note_on_c, 0, 64, 125
1, 70223, Note_off_c, 0, 64, 125
1, 70236, Note_on_c, 0, 66, 110
1, 70409, Note_off_c, 0, 66, 110
1, 70434, Note_on_c, 0, 69, 107
1, 70629, Note_off_c, 0, 69, 107
1, 70822, Note_on_c, 0, 66, 111
1, 70874, Note_off_c, 0, 66, 111
1, 70883, Note_on_c, 0, 64, 116
1, 70976, Note_off_c, 0, 64, 116
1, 70994, Note_on_c, 0, 62, 119
1, 71061, Note_off_c, 0, 62, 119
1, 71070, Note_on_c, 0, 57, 97
1, 71191, Note_off_c, 0, 57, 97
1, 71203, Note_on_c, 0, 62, 107
1, 71342, Note_off_c, 0, 62, 107
1, 71390, Note_on_c, 0, 66, 103
1, 71582, Note_off_c, 0, 66, 103
1, 71604, Note_on_c, 0, 66, 116
1, 71660, Note_off_c, 0, 66, 116
1, 71668, Note_on_c, 0, 65, 108
1, 71744, Note_off_c, 0, 65, 108
1, 71773, Note_on_c, 0, 62, 112
1, 71903, Note_off_c, 0, 62, 112
1, 72080, Note_on_c, 0, 65, 116
1, 72233, Note_off_c, 0, 65, 116
1, 72926, Note_on_c, 0, 57, 107
1, 73125, Note_off_c, 0, 57, 107
1, 73140, Note_on_c, 0, 64, 123
1, 73299, Note_off_c, 0, 64, 123
1, 73303, Note_on_c, 0, 64, 127
1, 73441, Note_off_c, 0, 64, 127
1, 73486, Note_on_c, 0, 62, 108
1, 73541, Note_off_c, 0, 62, 108
1, 73551, Note_on_c, 0, 64, 114
1, 73748, Note_off_c, 0, 64, 114
1, 73749, Note_on_c, 0, 63, 100
1, 73854, Note_off_c, 0, 63, 100
1, 73858, Note_on_c, 0, 62, 110
1, 74030, Note_off_c, 0, 62, 110
1, 74253, Note_on_c, 0, 61, 119
1, 74371, Note_off_c, 0, 61, 119
1, 74479, Note_on_c, 0, 61, 107
1, 74565, Note_off_c, 0, 61, 107
1, 74599, Note_on_c, 0, 64, 114
1, 74687, Note_off_c, 0, 64, 114
1, 74729, Note_on_c, 0, 57, 102
1, 74909, Note_off_c, 0, 57, 102
1, 75452, Note_on_c, 0, 59, 90
1, 75573, Note_off_c, 0, 59, 90
1, 75588, Note_on_c, 0, 62, 102
1, 75775, Note_off_c, 0, 62, 102
1, 75790, Note_on_c, 0, 62, 104
1, 76185, Note_off_c, 0, 62, 104
1, 76245, Note_on_c, 0, 58, 96
1, 76376, Note_off_c, 0, 58, 96
1, 76758, Note_on_c, 0, 52, 111
1, 76815, Note_off_c, 0, 52, 111
1, 76821, Note_on_c, 0, 54, 105
1, 76937, Note_off_c, 0, 54, 105
1, 76955, Note_on_c, 0, 57, 101
1, 77025, Note_off_c, 0, 57, 101
1, 77032, Note_on_c, 0, 59, 78
1, 77093, Note_off_c, 0, 59, 78
1, 77130, Note_on_c, 0, 57, 95
1, 77199, Note_off_c, 0, 57, 95
1, 77219, Note_on_c, 0, 54, 93
1, 77322, Note_off_c, 0, 54, 93
1, 77322, End_track
0, 0, End_of_file
