,note_name,start_time,duration,velocity,chord
15,A4,0.046357615894039306,0.1205298013245033,104,Fj7
16,C5,0.1920529801324502,0.10066225165562914,101,Fj7
17,D5,0.2993377483443709,0.12582781456953643,108,Fj7
18,C5,0.4503311258278142,0.08874172185430464,100,Fj7
19,G5,0.5536423841059603,0.1337748344370861,115,Fj7
20,E5,0.7086092715231782,0.08211920529801324,113,Fj7
21,F5,0.8013245033112577,0.11920529801324503,113,Fj7
22,G5,0.9536423841059598,0.10728476821192053,113,Fj7
23,G#5,1.0794701986754962,0.10066225165562914,115,Fj7
24,A5,1.1986754966887414,0.12980132450331125,121,Fj7
25,A#5,1.3430463576158935,0.0847682119205298,112,Fj7
26,B5,1.4384105960264897,0.10066225165562914,114,Fj7
27,C6,1.5682119205298015,0.10331125827814569,109,Fj7
28,B5,1.6966887417218537,0.11920529801324503,109,Fj7
29,A#5,1.8370860927152313,0.10331125827814569,107,Fj7
30,A5,1.9549668874172186,0.12582781456953643,116,Fj7
31,G5,2.095364238410596,0.09668874172185431,107,Em7b5
32,F5,2.2079470198675493,0.09801324503311258,109,Em7b5
33,E5,2.3165562913907287,0.11125827814569536,108,Em7b5
34,D5,2.4463576158940397,0.11920529801324503,96,Em7b5
35,C#5,2.5947019867549663,0.0,98,Em7b5
36,E5,2.703311258278146,0.08741721854304636,108,Em7b5
37,G5,2.878145695364238,0.07417218543046358,93,Em7b5
38,A5,2.960264900662252,0.09006622516556291,93,Em7b5
39,C6,3.087417218543046,0.09801324503311258,111,A79b
40,D6,3.1907284768211914,0.02913907284768212,86,A79b
41,C6,3.241059602649007,0.05827814569536424,106,A79b
42,A#5,3.312582781456954,0.10066225165562914,105,A79b
43,C6,3.429139072847682,0.03443708609271523,96,A79b
44,A#5,3.482119205298013,0.06887417218543046,102,A79b
45,A5,3.5536423841059603,0.14304635761589404,110,A79b
46,F5,3.717880794701986,0.10331125827814569,108,A79b
47,C#5,3.823841059602649,0.14834437086092717,97,A79b
48,A4,3.993377483443708,0.05827814569536424,87,A79b
49,E5,4.064900662251655,0.14834437086092717,109,D-7
50,A4,4.245033112582781,0.052980132450331126,87,D-7
51,D5,4.32980132450331,0.14304635761589404,106,D-7
52,E5,4.494039735099338,0.04768211920529802,109,D-7
53,F5,4.562913907284767,0.2728476821192053,105,D-7
54,E5,4.84635761589404,0.1271523178807947,108,D-7
55,D#5,4.99205298013245,0.07947019867549669,103,D-7
56,D5,5.090066225165562,0.12980132450331125,99,Bm7b5
57,A4,5.241059602649007,0.09271523178807947,106,Bm7b5
58,A#4,5.859602649006622,0.11655629139072848,105,Bm7b5
59,A4,5.984105960264901,0.08211920529801324,103,Bm7b5
60,G#4,6.100662251655629,0.08741721854304636,101,E7
61,A#4,6.2145695364238405,0.14834437086092717,104,E7
62,C5,6.370860927152317,0.10066225165562914,89,E7
63,E5,6.482119205298013,0.09006622516556291,99,E7
64,G5,6.577483443708609,0.12450331125827814,119,E7
65,A4,6.866225165562914,0.09801324503311258,100,E7
66,G#4,6.9801324503311255,0.09801324503311258,95,E7
67,G4,7.094039735099337,0.11655629139072848,96,A7
68,A4,7.242384105960265,0.11125827814569536,102,A7
69,B4,7.36158940397351,0.10066225165562914,92,A7
70,D5,7.464900662251655,0.10331125827814569,96,A7
71,F#5,7.586754966887416,0.11920529801324503,119,A7
72,C5,7.854304635761589,0.11390728476821192,104,A7
73,A#4,7.981456953642383,0.09801324503311258,103,A7
74,A4,8.108609271523179,0.10066225165562914,97,D7
75,G4,8.222516556291392,0.11655629139072848,100,D7
76,E4,8.373509933774834,0.11125827814569536,91,D7
77,C5,8.582781456953644,0.12185430463576159,108,D7
78,D#5,8.73907284768212,0.11920529801324503,104,D7
79,D5,8.863576158940397,0.09271523178807947,99,D7
80,C5,8.97748344370861,0.11920529801324503,106,D7
81,A#4,9.109933774834438,0.11125827814569536,99,G-7
82,C5,9.245033112582782,0.07947019867549669,91,G-7
83,D5,9.356291390728476,0.1509933774834437,107,G-7
84,A5,9.56026490066225,0.16158940397350993,114,G-7
85,F#5,9.73774834437086,0.11125827814569536,110,G-7
86,G5,9.870198675496688,0.08741721854304636,103,G-7
87,A5,9.981456953642383,0.08211920529801324,112,G-7
88,A#5,10.121854304635761,0.026490066225165563,110,Abo7
89,B5,10.169536423841059,0.10596026490066225,109,Abo7
90,G5,10.296688741721855,0.06357615894039735,114,Abo7
91,G#5,10.368211920529802,0.07947019867549669,106,Abo7
92,F5,10.474172185430465,0.07947019867549669,111,Abo7
93,D5,10.609271523178808,0.10860927152317881,102,Abo7
94,B4,10.765562913907285,0.10860927152317881,101,Abo7
95,C5,11.487417218543047,0.11125827814569536,108,A-7
96,C#5,11.605298013245033,0.059602649006622516,103,A-7
97,C5,11.675496688741724,0.059602649006622516,99,A-7
98,B4,11.735099337748345,0.0847682119205298,104,A-7
99,A#4,11.841059602649008,0.12980132450331125,109,A-7
100,A4,11.989403973509933,0.09271523178807947,109,A-7
101,G4,12.100662251655631,0.11125827814569536,106,D-7
102,A4,12.255629139072848,0.08874172185430464,110,D-7
103,B4,12.350993377483444,0.12317880794701987,101,D-7
104,C5,12.480794701986756,0.08874172185430464,102,D-7
105,E5,12.5841059602649,0.10728476821192053,123,D-7
106,C#5,12.728476821192054,0.12317880794701987,111,D-7
107,D5,12.86225165562914,0.10066225165562914,106,D-7
108,E5,12.965562913907284,0.1152317880794702,110,D-7
109,F5,13.083443708609273,0.12980132450331125,111,G7
110,G5,13.213245033112585,0.11125827814569536,109,G7
111,E5,13.327152317880795,0.1152317880794702,106,G7
112,D#5,13.467549668874174,0.10331125827814569,101,G7
113,D5,13.589403973509935,0.12582781456953643,111,G7
114,E5,13.725827814569538,0.10066225165562914,113,G7
115,F5,13.833112582781457,0.10066225165562914,98,G7
116,G5,13.948344370860926,0.0,85,G7
117,A5,14.045033112582782,0.1562913907284768,117,G-7
118,C5,14.226490066225168,0.09271523178807947,104,G-7
119,B4,14.337748344370862,0.10728476821192053,98,G-7
120,A4,14.455629139072848,0.11125827814569536,98,G-7
121,A#4,14.577483443708608,0.1152317880794702,95,G-7
122,G5,14.703311258278145,0.10066225165562914,105,G-7
123,E5,14.814569536423843,0.14834437086092717,96,G-7
124,C5,14.984105960264902,0.06622516556291391,90,G-7
125,F5,15.056953642384105,0.10728476821192053,110,C7
126,D5,15.182781456953641,0.09668874172185431,108,C7
127,A#4,15.316556291390729,0.10331125827814569,100,C7
128,G4,15.419867549668876,0.10331125827814569,97,C7
129,E5,15.694039735099338,0.10331125827814569,112,C7
130,D5,15.797350993377485,0.08874172185430464,94,C7
131,C#5,15.923178807947021,0.10331125827814569,100,C7
132,C5,16.03708609271523,0.1152317880794702,105,Fj7
133,D5,16.189403973509936,0.07417218543046358,103,Fj7
134,F5,16.288741721854304,0.17880794701986755,106,Fj7
135,A5,16.552317880794703,0.17880794701986755,116,Fj7
136,D6,16.756291390728478,0.1827814569536424,114,Fj7
137,C#6,16.957615894039737,0.06225165562913907,108,Fj7
138,D6,17.03841059602649,0.27549668874172184,116,Fj7
139,C6,17.332450331125827,0.08874172185430464,112,Fj7
140,C#6,17.442384105960265,0.051655629139072845,97,Fj7
141,C6,17.496688741721854,0.06225165562913907,106,Fj7
142,A5,17.56158940397351,0.12980132450331125,111,Fj7
143,F5,17.698013245033113,0.09668874172185431,100,Fj7
144,D5,17.835761589403972,0.10066225165562914,94,Fj7
145,C5,17.950993377483446,0.0,98,Fj7
146,G5,18.035761589403975,0.17483443708609273,112,Em7b5
147,G5,18.666225165562913,0.059602649006622516,94,Em7b5
148,F#5,18.725827814569538,0.06225165562913907,106,Em7b5
149,E5,18.802649006622516,0.10066225165562914,102,Em7b5
150,D5,18.936423841059604,0.10331125827814569,99,Em7b5
151,C#5,19.064900662251656,0.0847682119205298,97,A79b
152,E5,19.156291390728477,0.1152317880794702,105,A79b
153,G5,19.296688741721855,0.09668874172185431,91,A79b
154,A5,19.40794701986755,0.10066225165562914,95,A79b
155,C6,19.52980132450331,0.12317880794701987,114,A79b
156,B5,19.667549668874173,0.11920529801324503,110,A79b
157,A#5,19.797350993377485,0.10728476821192053,109,A79b
158,G#5,19.90728476821192,0.1152317880794702,114,A79b
159,A5,20.03708609271523,0.1152317880794702,114,D-7
160,F5,20.189403973509936,0.08211920529801324,108,D-7
161,C#5,20.290066225165564,0.1456953642384106,102,D-7
162,G5,20.498013245033114,0.08874172185430464,106,D-7
163,G#5,20.59337748344371,0.16026490066225166,109,D-7
164,G5,20.760264900662253,0.14834437086092717,112,D-7
165,F#5,20.929801324503313,0.09271523178807947,106,D-7
166,F5,21.043708609271523,0.09668874172185431,102,Bm7b5
167,D5,21.150993377483445,0.1152317880794702,99,Bm7b5
168,F5,21.705960264900664,0.059602649006622516,105,Bm7b5
169,A#5,21.780132450331127,0.08874172185430464,115,Bm7b5
170,A5,21.894039735099337,0.14172185430463577,121,Bm7b5
171,G#5,22.03841059602649,0.09271523178807947,112,E7
172,C6,22.137748344370863,0.09668874172185431,115,E7
173,G5,22.252980132450332,0.12582781456953643,104,E7
174,F5,22.37880794701987,0.10728476821192053,105,E7
175,E5,22.496688741721854,0.11125827814569536,104,E7
176,D5,22.626490066225166,0.12582781456953643,101,E7
177,B4,22.781456953642383,0.08874172185430464,92,E7
178,C5,22.880794701986755,0.09271523178807947,98,E7
179,C#5,23.010596026490067,0.10728476821192053,113,A7
180,E5,23.150993377483445,0.08874172185430464,98,A7
181,G5,23.250331125827817,0.1152317880794702,114,A7
182,A5,23.372185430463578,0.1152317880794702,116,A7
183,A#5,23.50596026490066,0.09271523178807947,110,A7
184,C6,23.605298013245033,0.04768211920529802,102,A7
185,A#5,23.663576158940398,0.07417218543046358,111,A7
186,A5,23.756291390728478,0.1152317880794702,117,A7
187,G5,23.88609271523179,0.09271523178807947,112,A7
188,F#5,23.989403973509933,0.11920529801324503,107,A7
189,C5,24.227814569536424,0.1456953642384106,108,D7
190,D#5,24.388079470198676,0.08874172185430464,111,D7
191,D5,24.483443708609272,0.1152317880794702,96,D7
192,C5,24.650331125827815,0.08211920529801324,97,D7
193,D5,24.735099337748345,0.14834437086092717,112,D7
194,C5,25.12185430463576,0.1337748344370861,112,G-7
195,C#5,25.280794701986757,0.04370860927152318,97,G-7
196,C5,25.33907284768212,0.07019867549668875,101,G-7
197,A4,25.40927152317881,0.0847682119205298,100,G-7
198,A#4,25.49403973509934,0.1827814569536424,109,G-7
199,F5,25.717880794701987,0.16688741721854305,115,G-7
200,G#5,25.89139072847682,0.11920529801324503,122,G-7
201,G5,26.021192052980133,0.12317880794701987,102,Abo7
202,F5,26.158940397350992,0.051655629139072845,105,Abo7
203,G5,26.235761589403975,0.1456953642384106,124,Abo7
204,E5,26.642384105960264,0.23841059602649006,94,A-7
205,C5,26.883443708609274,0.08211920529801324,95,A-7
206,D5,26.98675496688742,0.1827814569536424,101,A-7
207,A4,27.37748344370861,0.09668874172185431,109,D-7
208,A#4,27.488741721854307,0.11920529801324503,100,D-7
209,B4,27.61854304635762,0.09668874172185431,106,D-7
210,C5,27.73377483443709,0.12582781456953643,111,D-7
211,B4,27.880794701986755,0.10066225165562914,103,D-7
212,A#4,27.996026490066225,0.12317880794701987,100,D-7
213,A4,28.14039735099338,0.09668874172185431,105,G-7
214,G4,28.237086092715234,0.08211920529801324,93,G-7
215,F4,28.32980132450331,0.12317880794701987,101,G-7
216,E4,28.50066225165563,0.10066225165562914,105,G-7
217,G4,28.60794701986755,0.08211920529801324,95,G-7
218,A#4,28.711258278145696,0.1456953642384106,107,G-7
219,D5,28.875496688741723,0.1152317880794702,101,G-7
220,A4,29.09271523178808,0.12317880794701987,91,C7
221,C5,29.239735099337747,0.10331125827814569,107,C7
222,A#4,29.353642384105964,0.10066225165562914,107,C7
223,A4,29.487417218543047,0.10728476821192053,91,C7
224,C5,29.62384105960265,0.06622516556291391,94,C7
225,D5,29.696688741721854,0.14172185430463577,106,C7
226,C5,29.85695364238411,0.07417218543046358,110,C7
227,D5,29.96953642384106,0.04105960264900662,110,C7
228,D#5,30.017218543046358,0.09668874172185431,102,Eb7
229,C5,30.177483443708613,0.14834437086092717,100,Eb7
230,D5,30.344370860927153,0.39867549668874175,100,Eb7
231,D5,31.422516556291388,0.14834437086092717,112,D7
232,A#5,31.67417218543046,0.10066225165562914,120,D7
233,A#5,31.834437086092716,0.059602649006622516,114,D7
234,B5,31.919205298013242,0.07417218543046358,109,D7
235,A#5,32.082119205298014,0.7165562913907285,113,G-7
236,A#5,32.83576158940397,0.059602649006622516,110,G-7
237,B5,32.901986754966885,0.08211920529801324,107,G-7
238,A#5,33.06622516556291,0.1456953642384106,114,C7
239,G#5,33.23708609271523,0.07417218543046358,112,C7
240,F5,33.34039735099338,0.09668874172185431,113,C7
241,D#5,33.46622516556291,0.0781456953642384,107,C7
242,C#5,33.550993377483444,0.06622516556291391,101,C7
243,C5,33.62781456953642,0.059602649006622516,102,C7
244,B4,33.70860927152317,0.0847682119205298,102,C7
245,D5,33.793377483443706,0.12980132450331125,105,C7
246,C5,33.93774834437086,0.12980132450331125,105,C7
247,B4,34.078145695364235,0.10066225165562914,101,Fj7
248,A#4,34.193377483443705,0.08211920529801324,104,Fj7
249,G#4,34.30066225165562,0.09668874172185431,100,Fj7
250,A4,34.41854304635761,0.1205298013245033,102,Fj7
251,A#4,34.54172185430463,0.09801324503311258,95,Fj7
252,E5,34.65033112582781,0.12317880794701987,113,Fj7
253,G5,34.792052980132446,0.13774834437086092,121,Fj7
254,C5,35.50860927152318,0.12317880794701987,115,C7
255,D5,35.65033112582781,0.12980132450331125,112,C7
256,E5,35.79867549668874,0.09271523178807947,112,C7
257,G5,36.017218543046354,0.10331125827814569,116,Fj7
258,F5,36.141721854304635,0.13774834437086092,110,Fj7
259,E5,36.29801324503311,0.12980132450331125,112,Fj7
260,C5,36.51258278145695,0.08874172185430464,106,Fj7
261,D5,36.62251655629139,0.1152317880794702,112,Fj7
262,E5,36.75894039735099,0.11125827814569536,110,Fj7
263,G5,36.97748344370861,0.1152317880794702,113,Fj7
264,F5,37.09271523178808,0.16423841059602648,114,Fj7
265,E5,37.27549668874172,0.12317880794701987,114,Fj7
266,C5,37.50993377483444,0.09271523178807947,108,Fj7
267,D5,37.62119205298013,0.1337748344370861,104,Fj7
268,D#5,37.78013245033112,0.05562913907284768,109,Fj7
269,E5,37.846357615894036,0.2609271523178808,99,Fj7
270,B4,38.140397350993375,0.09271523178807947,99,Em7b5
271,D#5,38.33377483443709,0.12317880794701987,107,Em7b5
272,B4,38.602649006622514,0.10066225165562914,98,Em7b5
273,D5,38.85960264900662,0.10728476821192053,105,Em7b5
274,B4,39.12715231788079,0.1152317880794702,97,A79b
275,C5,39.260927152317876,0.10066225165562914,101,A79b
276,C#5,39.380132450331125,0.10728476821192053,98,A79b
277,A#5,39.50860927152318,0.08874172185430464,115,A79b
278,A5,39.599999999999994,0.152317880794702,115,A79b
279,G5,39.75496688741722,0.10066225165562914,106,A79b
280,F5,39.85827814569536,0.12980132450331125,110,A79b
281,C#5,40.00662251655629,0.07417218543046358,100,D-7
282,A4,40.10596026490066,0.09668874172185431,94,D-7
283,F4,40.21721854304636,0.06887417218543046,90,D-7
284,E5,40.35894039735099,0.152317880794702,103,D-7
285,C#5,40.52980132450331,0.09271523178807947,97,D-7
286,D5,40.63311258278146,0.09668874172185431,101,D-7
287,F5,40.75099337748344,0.16423841059602648,113,D-7
288,F5,41.47152317880794,0.11125827814569536,120,Bm7b5
289,G5,41.611920529801324,0.07019867549668875,88,Bm7b5
290,C6,41.70331125827814,0.05562913907284768,104,Bm7b5
291,D#6,41.76953642384105,0.07019867549668875,104,Bm7b5
292,D6,41.85827814569536,0.12980132450331125,116,Bm7b5
293,C6,41.99867549668874,0.12582781456953643,115,Bm7b5
294,A#5,42.131125827814564,0.10331125827814569,109,E7
295,A5,42.23708609271523,0.12980132450331125,117,E7
296,G#5,42.373509933774834,0.12317880794701987,112,E7
297,G5,42.97748344370861,0.10066225165562914,114,E7
298,G#5,43.09668874172185,0.0,105,A7
299,G5,43.1523178807947,0.0781456953642384,102,A7
300,F5,43.23046357615894,0.08211920529801324,104,A7
301,E5,43.323178807947016,0.13774834437086092,108,A7
302,D5,43.47152317880794,0.0781456953642384,106,A7
303,C#5,43.5682119205298,0.1337748344370861,104,A7
304,A#4,43.73907284768212,0.09668874172185431,111,A7
305,A4,43.854304635761586,0.10066225165562914,98,A7
306,G4,43.97350993377483,0.12980132450331125,102,A7
307,F#4,44.10596026490066,0.0847682119205298,84,D7
308,A4,44.2317880794702,0.06225165562913907,88,D7
309,C5,44.323178807947016,0.1562913907284768,108,D7
310,D#5,44.47947019867549,0.08874172185430464,105,D7
311,C5,44.615894039735096,0.11125827814569536,102,D7
312,C#5,44.733774834437085,0.10728476821192053,106,D7
313,D5,44.86225165562914,0.10331125827814569,107,D7
314,A#4,44.972185430463576,0.10728476821192053,113,D7
315,A4,45.09403973509934,0.10728476821192053,104,G-7
316,G4,45.23443708609271,0.0847682119205298,98,G-7
317,C5,45.325827814569536,0.1456953642384106,114,G-7
318,A#4,45.486092715231784,0.09668874172185431,115,G-7
319,A4,45.601324503311254,0.09271523178807947,102,G-7
320,A#4,45.71920529801324,0.07417218543046358,97,G-7
321,B4,45.81456953642384,0.1827814569536424,108,G-7
322,D5,46.007947019867544,0.0,92,Abo7
323,F5,46.05562913907284,0.17086092715231788,118,Abo7
324,F#5,46.2317880794702,0.06357615894039735,119,Abo7
325,G5,46.29536423841059,0.271523178807947,109,Abo7
326,F#5,46.57350993377483,0.17218543046357615,109,Abo7
327,F5,46.83576158940397,0.13774834437086092,118,Abo7
328,D5,47.00264900662251,0.1271523178807947,109,A-7
329,F#5,47.58145695364238,0.06357615894039735,106,A-7
330,G5,47.660927152317875,0.39470198675496687,99,A-7
331,F5,48.06357615894039,0.1695364238410596,112,D-7
332,D#5,48.368211920529795,0.052980132450331126,103,D-7
333,E5,48.423841059602644,0.18543046357615894,34,D-7
334,D5,48.611920529801324,0.17218543046357615,108,D-7
335,C5,48.87682119205298,0.2304635761589404,103,D-7
336,B4,49.12317880794701,0.1880794701986755,103,G7
337,G#4,49.39337748344371,0.02913907284768212,98,G7
338,A4,49.435761589403974,0.1695364238410596,99,G7
339,G4,49.61324503311258,0.17483443708609273,105,G7
340,A4,50.076821192052975,0.033112582781456956,108,G-7
341,G4,50.1205298013245,0.02913907284768212,100,G-7
342,F4,50.15099337748344,0.08741721854304636,99,G-7
343,G4,50.29933774834437,0.09536423841059603,110,G-7
344,A#4,50.41589403973509,0.11655629139072848,113,G-7
345,D5,50.54304635761589,0.09536423841059603,116,G-7
346,A4,50.664900662251654,0.13245033112582782,102,G-7
347,G4,50.80529801324503,0.0,94,G-7
348,C5,50.87947019867549,0.14304635761589404,117,G-7
349,B4,51.03046357615894,0.11920529801324503,108,C7
350,A#4,51.17350993377483,0.12980132450331125,107,C7
351,C5,51.313907284768206,0.09271523178807947,107,C7
352,G4,51.4569536423841,0.08874172185430464,95,C7
353,G#4,51.56953642384106,0.07947019867549669,106,C7
354,A4,51.667549668874166,0.12185430463576159,96,C7
355,C5,51.79735099337748,0.06357615894039735,89,C7
356,D5,51.87682119205298,0.16423841059602648,104,C7
357,C5,52.05430463576159,0.05562913907284768,98,Fj7
358,F5,52.12317880794701,0.1562913907284768,122,Fj7
359,G5,52.40397350993377,0.1695364238410596,115,Fj7
360,A5,52.626490066225166,0.1271523178807947,121,Fj7
361,B5,52.80662251655629,0.05562913907284768,112,Fj7
362,C6,52.87019867549669,0.2596026490066225,107,Fj7
363,A5,53.15364238410596,0.11655629139072848,115,Fj7
364,C5,53.3364238410596,0.48079470198675495,96,Fj7
365,A5,54.02913907284768,0.10860927152317881,118,Em7b5
366,A#5,54.15629139072848,0.10066225165562914,113,Em7b5
367,A5,54.27549668874172,0.14834437086092717,120,Em7b5
368,G5,54.442384105960265,0.08741721854304636,105,Em7b5
369,F5,54.54039735099337,0.10331125827814569,111,Em7b5
370,E5,54.654304635761584,0.11125827814569536,106,Em7b5
371,D5,54.792052980132446,0.10331125827814569,104,Em7b5
372,C#5,54.905960264900656,0.12980132450331125,97,Em7b5
373,E5,55.04635761589404,0.07947019867549669,105,A79b
374,G5,55.139072847682115,0.11920529801324503,98,A79b
375,A#5,55.34569536423841,0.04768211920529802,95,A79b
376,C6,55.41721854304635,0.1271523178807947,112,A79b
377,D6,55.557615894039735,0.02384105960264901,111,A79b
378,C6,55.602649006622514,0.05827814569536424,112,A79b
379,A#5,55.67417218543046,0.09801324503311258,113,A79b
380,C6,55.793377483443706,0.026490066225165563,102,A79b
381,A#5,55.83311258278145,0.06887417218543046,112,A79b
382,A5,55.901986754966885,0.1403973509933775,116,A79b
383,F5,56.068874172185424,0.11125827814569536,110,D-7
384,C#5,56.18013245033112,0.1403973509933775,103,D-7
385,E5,56.40264900662251,0.18013245033112582,108,D-7
386,C#5,56.601324503311254,0.05827814569536424,100,D-7
387,D5,56.678145695364236,0.12450331125827814,104,D-7
388,F5,56.847682119205295,0.18543046357615894,117,D-7
389,A#5,57.51920529801324,0.060927152317880796,95,Bm7b5
390,A5,57.58278145695364,0.0847682119205298,124,Bm7b5
391,G#5,57.680794701986756,0.07417218543046358,124,Bm7b5
392,C6,57.80264900662252,0.09801324503311258,118,Bm7b5
393,G5,58.019867549668874,0.07152317880794702,117,E7
394,F#5,58.1046357615894,0.07947019867549669,113,E7
395,F5,58.199999999999996,0.05562913907284768,104,E7
396,A#4,58.30331125827814,0.10066225165562914,107,E7
397,A5,58.52847682119205,0.07947019867549669,117,E7
398,G#5,58.610596026490065,0.07417218543046358,115,E7
399,G5,58.68476821192053,0.07947019867549669,111,E7
400,B5,58.830463576158934,0.10066225165562914,106,E7
401,F#5,59.07152317880795,0.05827814569536424,108,A7
402,E5,59.15894039735099,0.06887417218543046,103,A7
403,A4,59.29139072847681,0.09536423841059603,96,A7
404,C5,59.768211920529794,0.0423841059602649,102,A7
405,B4,59.81854304635762,0.03443708609271523,107,A7
406,A#4,59.86887417218543,0.09536423841059603,102,A7
407,A4,60.033112582781456,0.07152317880794702,106,D7
408,G4,60.10993377483443,0.1562913907284768,99,D7
409,F4,60.30331125827814,0.08741721854304636,100,D7
410,F#4,60.39602649006622,0.12980132450331125,93,D7
411,D#5,60.54569536423841,0.09006622516556291,106,D7
412,C5,60.662251655629134,0.10596026490066225,102,D7
413,C#5,60.8,0.09271523178807947,106,D7
414,D5,60.89801324503311,0.10860927152317881,108,D7
415,A#4,61.05430463576158,0.11655629139072848,110,G-7
416,A4,61.17350993377484,0.08741721854304636,99,G-7
417,G4,61.28741721854304,0.09006622516556291,96,G-7
418,C5,61.40662251655628,0.13509933774834437,107,G-7
419,A#4,61.562913907284766,0.11920529801324503,112,G-7
420,B4,61.69536423841059,0.08211920529801324,100,G-7
421,C#5,61.78807947019867,0.09271523178807947,103,G-7
422,D5,61.88609271523178,0.10331125827814569,102,G-7
423,E5,62.04238410596027,0.10331125827814569,107,Abo7
424,F5,62.15629139072847,0.12185430463576159,104,Abo7
425,G5,62.29933774834437,0.09536423841059603,97,Abo7
426,G#5,62.413245033112574,0.11655629139072848,119,Abo7
427,A5,62.54304635761589,0.10860927152317881,124,A-7
428,A#5,62.66754966887417,0.12185430463576159,116,A-7
429,B5,62.80794701986754,0.07417218543046358,100,A-7
430,C6,62.908609271523176,0.13245033112582782,115,A-7
431,D5,63.086092715231786,0.11920529801324503,107,D-7
432,G5,63.890066225165555,0.19602649006622516,115,D-7
433,A#5,64.08609271523179,0.039735099337748346,93,G-7
434,D6,64.16026490066226,0.15364238410596026,114,G-7
435,F#5,64.31920529801324,0.1695364238410596,120,G-7
436,A#5,64.52317880794702,0.039735099337748346,96,G-7
437,D6,64.58675496688741,0.060927152317880796,107,G-7
438,F5,64.67152317880794,0.15364238410596026,118,G-7
439,A#5,64.85165562913907,0.045033112582781455,93,G-7
440,D6,64.92317880794701,0.13245033112582782,109,G-7
441,D5,65.09006622516556,0.05033112582781457,102,C7
442,E5,65.14039735099337,0.12185430463576159,104,C7
443,G#5,65.26225165562914,0.02913907284768212,83,C7
444,D6,65.30993377483443,0.12980132450331125,96,C7
445,A5,65.4476821192053,0.1509933774834437,125,C7
446,G5,65.61456953642384,0.039735099337748346,102,C7
447,C6,65.69139072847682,0.1403973509933775,117,C7
448,A5,65.95894039735099,0.1562913907284768,120,C7
449,E6,66.1841059602649,0.15364238410596026,121,Eb7
450,G#5,66.36158940397351,0.16158940397350993,113,Eb7
451,E6,66.57350993377483,0.12450331125827814,102,Eb7
452,G5,66.71125827814569,0.1827814569536424,109,Eb7
453,E6,66.95364238410596,0.17086092715231788,116,Eb7
454,F#5,67.13509933774834,0.16026490066225166,108,D7
455,C6,67.30993377483443,0.025165562913907286,84,D7
456,E6,67.34172185430464,0.12980132450331125,111,D7
457,B5,67.482119205298,0.1337748344370861,108,D7
458,A5,67.6158940397351,0.07019867549668875,103,D7
459,D6,67.71920529801324,0.13774834437086092,114,D7
460,G5,67.96026490066225,0.17880794701986755,111,D7
461,D6,68.19470198675496,0.1456953642384106,108,G-7
462,F#5,68.35496688741722,0.17086092715231788,111,G-7
463,A#5,68.54039735099337,0.051655629139072845,86,G-7
464,D6,68.60264900662251,0.09271523178807947,97,G-7
465,F5,68.70198675496688,0.17086092715231788,112,G-7
466,D6,68.95099337748344,0.11125827814569536,109,G-7
467,E5,69.14437086092715,0.14834437086092717,101,C7
468,G5,69.3139072847682,0.05562913907284768,85,C7
469,D6,69.36953642384105,0.0781456953642384,100,C7
470,A5,69.45430463576159,0.18940397350993377,123,C7
471,G5,69.67947019867549,0.060927152317880796,93,C7
472,C6,69.74039735099338,0.11125827814569536,110,C7
473,A#5,69.8543046357616,0.10728476821192053,117,C7
474,A5,69.9682119205298,0.14834437086092717,116,C7
475,F5,70.13774834437086,0.07417218543046358,112,Fj7
476,D5,70.22251655629138,0.12582781456953643,110,Fj7
477,C5,70.36291390728476,0.09668874172185431,96,Fj7
478,G5,70.47019867549669,0.17483443708609273,115,Fj7
479,D5,70.6662251655629,0.1337748344370861,109,Fj7
480,A#5,71.19867549668874,0.07019867549668875,112,G-7
481,C6,71.28344370860927,0.8145695364238411,111,G-7
482,B5,72.10596026490066,0.045033112582781455,116,Fj7
483,A#5,72.15894039735099,0.039735099337748346,118,Fj7
484,A5,72.21456953642384,0.14304635761589404,119,Fj7
485,F5,72.36556291390728,0.09801324503311258,108,Fj7
486,D5,72.482119205298,0.12185430463576159,98,Fj7
487,C5,72.61456953642384,0.11125827814569536,101,Fj7
488,G5,72.73907284768211,0.14834437086092717,111,Fj7
489,D5,72.89801324503311,0.11655629139072848,104,Fj7
490,A#5,73.14039735099337,0.09933774834437085,115,Fj7
491,B5,73.24900662251655,0.8821192052980132,108,Fj7
492,A5,74.1364238410596,0.045033112582781455,107,Em7b5
493,G#5,74.18145695364238,0.05827814569536424,111,Em7b5
494,G5,74.25033112582781,0.11125827814569536,104,Em7b5
495,E5,74.38807947019868,0.09536423841059603,102,Em7b5
496,D5,74.5046357615894,0.10066225165562914,96,Em7b5
497,B4,74.62384105960264,0.10066225165562914,96,Em7b5
498,C5,74.7456953642384,0.13774834437086092,100,Em7b5
499,C#5,74.89403973509934,0.09271523178807947,105,Em7b5
500,A4,75.33907284768212,0.11920529801324503,100,A79b
501,B4,75.47682119205298,0.12450331125827814,93,A79b
502,C#5,75.6251655629139,0.09801324503311258,105,A79b
503,E5,75.72317880794702,0.1403973509933775,105,A79b
504,C#5,75.90066225165563,0.10331125827814569,94,A79b
505,D5,76.0251655629139,0.11125827814569536,96,D-7
506,E5,76.15496688741722,0.12450331125827814,103,D-7
507,F5,76.29006622516556,0.10066225165562914,92,D-7
508,G5,76.41456953642384,0.07947019867549669,78,D-7
509,A5,76.49403973509934,0.1456953642384106,115,D-7
510,F5,76.6662251655629,0.0,108,D-7
511,C#5,76.74834437086092,0.17748344370860927,101,D-7
512,E5,76.98145695364238,0.1695364238410596,98,D-7
513,C#5,77.18278145695363,0.06622516556291391,96,Bm7b5
514,D5,77.24900662251655,0.13509933774834437,103,Bm7b5
515,F5,77.42119205298013,0.13509933774834437,119,Bm7b5
516,A5,77.92185430463576,0.09006622516556291,117,Bm7b5
517,A#5,78.01986754966887,0.12185430463576159,106,E7
518,A5,78.14966887417218,0.11920529801324503,116,E7
519,G#5,78.2794701986755,0.10860927152317881,115,E7
520,C6,78.40397350993378,0.11390728476821192,110,E7
521,G5,78.54701986754966,0.11390728476821192,105,E7
522,F5,78.66887417218543,0.0847682119205298,112,E7
523,E5,78.758940397351,0.11390728476821192,103,E7
524,D5,78.89139072847682,0.11125827814569536,103,E7
525,C#5,79.0158940397351,0.12980132450331125,105,A7
526,A#4,79.18013245033113,0.07947019867549669,108,A7
527,A4,79.27814569536423,0.11390728476821192,99,A7
528,G4,79.41854304635761,0.10066225165562914,104,A7
529,F#4,79.52715231788079,0.11655629139072848,96,A7
530,A4,79.64370860927151,0.06622516556291391,91,A7
531,C5,79.7523178807947,0.13245033112582782,107,A7
532,D#5,79.90860927152318,0.0847682119205298,104,A7
533,D5,80.00132450331125,0.13245033112582782,99,D7
534,A#4,80.14172185430463,0.13245033112582782,110,D7
535,A4,80.28344370860927,0.09668874172185431,92,D7
536,G4,80.40529801324503,0.07417218543046358,95,D7
537,C5,80.5046357615894,0.16688741721854305,111,D7
538,A4,80.69006622516557,0.060927152317880796,102,D7
539,A#4,80.76423841059602,0.14304635761589404,112,D7
540,F5,80.91523178807947,0.528476821192053,110,D7
541,A#4,81.93774834437086,0.07947019867549669,110,G-7
542,B4,82.03311258278146,0.12980132450331125,92,Abo7
543,F5,82.26092715231788,0.13509933774834437,125,Abo7
544,G#5,82.50198675496688,0.1403973509933775,119,Abo7
545,B4,82.92582781456953,0.09006622516556291,100,Abo7
546,C5,83.02913907284768,0.1509933774834437,97,A-7
547,G5,83.28609271523179,0.13245033112582782,115,A-7
548,A5,83.52980132450331,0.1271523178807947,124,A-7
549,C5,83.95099337748344,0.06887417218543046,101,A-7
550,D5,84.03046357615894,0.12980132450331125,106,D-7
551,F5,84.1841059602649,0.0847682119205298,99,D-7
552,A5,84.29006622516556,0.11390728476821192,126,D-7
553,C6,84.5682119205298,0.11920529801324503,102,D-7
554,A5,84.79602649006623,0.1456953642384106,120,D-7
555,C5,85.0953642384106,0.09801324503311258,111,G7
556,F5,85.2092715231788,0.0847682119205298,97,G7
557,A5,85.30728476821191,0.12185430463576159,121,G7
558,A#5,85.51920529801325,0.06357615894039735,113,G7
559,B5,85.58807947019868,0.11655629139072848,107,G7
560,C6,85.7046357615894,0.052980132450331126,106,G7
561,B5,85.76291390728477,0.05827814569536424,110,G7
562,A5,85.82913907284768,0.1456953642384106,120,G7
563,G#5,85.98013245033113,0.10860927152317881,117,G7
564,G5,86.09933774834437,0.1403973509933775,104,G-7
565,F#5,86.2476821192053,0.08741721854304636,109,G-7
566,F5,86.34834437086093,0.10066225165562914,107,G-7
567,C#5,86.44900662251655,0.12450331125827814,100,G-7
568,A#4,86.58145695364239,0.12450331125827814,99,G-7
569,G4,86.72450331125827,0.05033112582781457,94,G-7
570,C5,86.81324503311258,0.152317880794702,108,G-7
571,A#4,86.99602649006623,0.09271523178807947,109,G-7
572,A4,87.09139072847682,0.13774834437086092,95,C7
573,D5,87.30860927152318,0.13509933774834437,107,C7
574,F5,87.48344370860927,0.05827814569536424,92,C7
575,A5,87.55496688741722,0.17748344370860927,116,C7
576,B5,87.7456953642384,0.05827814569536424,93,C7
577,C6,87.82251655629139,0.07417218543046358,117,C7
578,D6,87.90860927152318,0.04900662251655629,108,C7
579,D#6,87.96688741721854,0.09271523178807947,111,C7
580,E6,88.07549668874172,0.7589403973509934,114,Fj7
581,D6,88.84238410596026,0.14304635761589404,110,Fj7
582,C#6,89.00662251655629,0.09271523178807947,114,Fj7
583,C6,89.11788079470199,0.11920529801324503,113,Fj7
584,A5,89.25562913907285,0.13509933774834437,123,Fj7
585,A5,89.98278145695365,0.13245033112582782,118,Fj7
586,A#5,90.13907284768212,0.07682119205298013,98,Em7b5
587,A5,90.24503311258277,0.11655629139072848,116,Em7b5
588,G#5,90.3748344370861,0.07417218543046358,99,Em7b5
589,A5,90.47284768211921,0.1271523178807947,115,Em7b5
590,A#5,90.61059602649006,0.10596026490066225,108,Em7b5
591,A5,90.72980132450331,0.13509933774834437,121,Em7b5
592,G#5,90.87549668874172,0.10066225165562914,111,Em7b5
593,A5,90.99205298013244,0.11920529801324503,116,Em7b5
594,A#5,91.12715231788079,0.10860927152317881,113,A79b
595,A5,91.23841059602648,0.11390728476821192,118,A79b
596,G#5,91.35761589403974,0.11125827814569536,115,A79b
597,A5,91.4980132450331,0.10860927152317881,119,A79b
598,A#5,91.62251655629139,0.12980132450331125,111,A79b
599,A5,91.76556291390729,0.12185430463576159,117,A79b
600,G5,91.9112582781457,0.09271523178807947,105,A79b
601,F#5,92.01721854304635,0.09801324503311258,107,D-7
602,F5,92.13112582781457,0.10860927152317881,107,D-7
603,C#5,92.2794701986755,0.12450331125827814,98,D-7
604,A4,92.42781456953642,0.09271523178807947,95,D-7
605,C#5,92.53509933774833,0.05695364238410596,84,D-7
606,E5,92.61192052980132,0.16688741721854305,107,D-7
607,C#5,92.78145695364238,0.07947019867549669,97,D-7
608,D5,92.88476821192053,0.11125827814569536,103,D-7
609,E5,93.01192052980132,0.0847682119205298,109,Bm7b5
610,F5,93.11523178807947,0.12450331125827814,107,Bm7b5
611,G5,93.26092715231788,0.04768211920529802,103,Bm7b5
612,F5,93.3139072847682,0.05827814569536424,112,Bm7b5
613,E5,93.3748344370861,0.09536423841059603,108,Bm7b5
614,D#5,93.49933774834437,0.09801324503311258,98,Bm7b5
615,D5,93.62384105960264,0.12450331125827814,105,Bm7b5
616,A4,93.7774834437086,0.07947019867549669,110,Bm7b5
617,A4,94.25960264900662,0.11920529801324503,109,E7
618,G#4,94.39999999999999,0.08211920529801324,109,E7
619,F#5,94.52450331125827,0.0847682119205298,114,E7
620,G5,94.62251655629139,0.11655629139072848,115,E7
621,G#5,94.75496688741721,0.0423841059602649,113,E7
622,G5,94.8,0.05033112582781457,115,E7
623,F5,94.86092715231788,0.13245033112582782,122,E7
624,A4,95.28741721854304,0.02913907284768212,102,A7
625,G#4,95.31655629139073,0.030463576158940398,102,A7
626,G4,95.35364238410595,0.08211920529801324,105,A7
627,F5,95.51788079470198,0.10331125827814569,119,A7
628,F#5,95.64238410596026,0.20132450331125828,110,A7
629,E5,95.86225165562914,0.11390728476821192,111,A7
630,A4,96.27814569536423,0.07947019867549669,97,D7
631,C5,96.39205298013245,0.10596026490066225,103,D7
632,B4,96.52185430463575,0.09006622516556291,101,D7
633,A#4,96.63046357615893,0.08741721854304636,105,D7
634,A4,96.76291390728477,0.07152317880794702,106,D7
635,G4,96.89801324503311,0.09271523178807947,96,D7
636,F#4,97.00927152317881,0.09271523178807947,85,G-7
637,A4,97.1046357615894,0.13509933774834437,109,G-7
638,G4,97.43311258278145,0.0847682119205298,102,G-7
639,C5,97.56556291390729,0.02119205298013245,113,G-7
640,D5,97.5933774834437,0.26225165562913905,101,G-7
641,G4,98.32847682119206,0.07417218543046358,100,Abo7
642,B4,98.47417218543046,0.07947019867549669,99,Abo7
643,D5,98.56688741721854,0.07682119205298013,104,A-7
644,G5,98.69668874172186,0.12980132450331125,116,A-7
645,E5,98.8569536423841,0.059602649006622516,93,A-7
646,F5,98.9298013245033,0.14834437086092717,117,A-7
647,C6,99.09933774834437,0.5152317880794702,100,D-7
648,A5,100.09006622516556,0.060927152317880796,124,G-7
649,A#5,100.18013245033113,0.11920529801324503,120,G-7
650,A5,100.32582781456954,0.0423841059602649,123,G-7
651,G5,100.37880794701987,0.052980132450331126,113,G-7
652,F#5,100.44238410596026,0.11920529801324503,113,G-7
653,A5,100.58543046357616,0.13245033112582782,117,G-7
654,G5,100.72582781456953,0.10596026490066225,117,G-7
655,A5,100.8344370860927,0.10860927152317881,118,G-7
656,A#5,100.96953642384106,0.12450331125827814,119,G-7
657,A5,101.10198675496689,0.03708609271523179,118,C7
658,G5,101.14966887417218,0.03708609271523179,118,C7
659,F#5,101.21059602649007,0.10066225165562914,115,C7
660,A5,101.33245033112583,0.1403973509933775,109,C7
661,G5,101.4887417218543,0.09801324503311258,117,C7
662,A5,101.60794701986755,0.11125827814569536,121,C7
663,A#5,101.7430463576159,0.09801324503311258,119,C7
664,A5,101.84900662251655,0.03708609271523179,102,C7
665,G5,101.88609271523178,0.0423841059602649,115,C7
666,F#5,101.95761589403973,0.10066225165562914,113,C7
667,A5,102.1139072847682,0.08211920529801324,110,Eb7
668,C6,102.21721854304636,0.11125827814569536,116,Eb7
669,B5,102.34701986754966,0.05827814569536424,110,Eb7
670,A#5,102.41059602649007,0.052980132450331126,117,Eb7
671,A5,102.47417218543046,0.11390728476821192,119,Eb7
672,A#5,102.61721854304635,0.11655629139072848,117,Eb7
673,A5,102.74966887417219,0.11920529801324503,118,Eb7
674,G#5,102.87947019867549,0.05562913907284768,114,Eb7
675,G5,102.94039735099338,0.052980132450331126,112,Eb7
676,F#5,102.99867549668873,0.10331125827814569,114,Eb7
677,A#4,103.4092715231788,0.05827814569536424,95,D7
678,C5,103.48609271523179,0.1456953642384106,108,D7
679,D#5,103.63708609271522,0.09801324503311258,107,D7
680,D5,103.758940397351,0.10066225165562914,105,D7
681,C#5,103.86754966887418,0.09801324503311258,108,D7
682,C5,103.99470198675496,0.10331125827814569,108,D7
683,B4,104.1112582781457,0.11390728476821192,105,G-7
684,A#4,104.23576158940396,0.1562913907284768,99,G-7
685,C5,104.42384105960265,0.05827814569536424,104,G-7
686,D5,104.50066225165563,0.14304635761589404,111,G-7
687,A5,104.72847682119205,0.1562913907284768,127,G-7
688,C6,104.92450331125828,0.045033112582781455,100,G-7
689,D6,104.99337748344371,0.20927152317880796,116,G-7
690,D#6,105.22649006622517,0.29668874172185433,115,C7
691,D6,105.53377483443708,0.12450331125827814,116,C7
692,C#6,105.66092715231788,0.13245033112582782,112,C7
693,C6,105.80132450331125,0.09536423841059603,117,C7
694,G#5,105.90728476821192,0.09536423841059603,120,C7
695,E5,106.02384105960265,0.09536423841059603,109,Fj7
696,D5,106.13774834437086,0.09006622516556291,105,Fj7
697,G5,106.25960264900662,0.1509933774834437,116,Fj7
698,E5,106.44238410596026,0.05562913907284768,105,Fj7
699,F5,106.51655629139073,0.1695364238410596,113,Fj7
700,G5,106.69668874172186,0.045033112582781455,96,Fj7
701,A5,106.7682119205298,0.13509933774834437,125,Fj7
702,C5,106.90331125827814,0.12980132450331125,119,Fj7
703,C5,107.41456953642384,0.10066225165562914,114,G-7
704,D5,107.53112582781456,0.052980132450331126,102,C7
705,C5,107.60264900662251,0.09006622516556291,108,C7
706,B4,107.69536423841059,0.0847682119205298,105,C7
707,A#4,107.78807947019867,0.10331125827814569,113,C7
708,G5,107.90198675496688,0.12185430463576159,117,C7
709,E5,108.03443708609271,0.1271523178807947,110,Fj7
710,C5,108.19602649006622,0.05033112582781457,95,Fj7
711,F5,108.25430463576159,0.1509933774834437,123,Fj7
